<?xml version="1.0" standalone="no"?>
<!DOCTYPE svg PUBLIC "-//W3C//DTD SVG 20010904//EN"
 "http://www.w3.org/TR/2001/REC-SVG-20010904/DTD/svg10.dtd">
<svg version="1.0" xmlns="http://www.w3.org/2000/svg"
 width="420.000000pt" height="420.000000pt" viewBox="0 0 420.000000 420.000000"
 preserveAspectRatio="xMidYMid meet">
<metadata>
Created by potrace 1.11, written by Peter Selinger 2001-2013
</metadata>
<g transform="translate(0.000000,420.000000) scale(0.100000,-0.100000)"
fill="#000000" stroke="none">
<path d="M1975 4185 c-39 -11 -1146 -496 -1390 -610 -27 -13 -70 -31 -95 -41
-122 -48 -195 -124 -235 -243 -16 -50 -17 -90 -12 -525 4 -259 8 -491 11 -516
2 -25 7 -81 11 -125 11 -127 22 -235 29 -270 2 -11 7 -47 11 -80 26 -220 100
-460 179 -585 103 -162 449 -486 706 -660 12 -8 28 -20 34 -25 26 -25 315
-222 476 -325 227 -146 274 -170 353 -177 124 -11 189 15 429 170 745 480
1161 840 1285 1112 70 154 137 474 159 765 3 41 7 93 9 115 12 121 19 430 19
727 -1 323 -2 339 -24 408 -20 61 -33 82 -84 135 l-61 62 -770 341 c-424 188
-789 345 -812 350 -60 14 -170 12 -228 -3z m315 -246 c63 -28 139 -62 168 -75
29 -13 54 -24 56 -24 3 0 37 -15 78 -34 40 -19 107 -48 148 -66 41 -18 93 -40
115 -50 46 -21 495 -221 558 -249 256 -113 277 -124 303 -158 18 -24 28 -53
33 -91 8 -69 6 -698 -3 -832 -13 -210 -16 -257 -21 -300 -3 -25 -7 -70 -10
-100 -3 -30 -8 -73 -11 -95 -3 -22 -7 -49 -9 -60 -14 -98 -18 -121 -20 -125
-2 -3 -6 -25 -10 -49 -11 -71 -53 -208 -84 -269 -64 -127 -193 -269 -406 -447
-301 -252 -958 -696 -1052 -711 -70 -11 -106 8 -448 231 -141 93 -466 324
-485 345 -3 3 -34 28 -70 55 -199 152 -408 362 -478 480 -27 47 -70 149 -77
185 -2 8 -10 42 -18 75 -13 50 -35 164 -52 275 -5 35 -20 180 -30 290 -20 233
-29 506 -28 823 1 232 3 261 20 294 11 20 30 45 44 55 13 10 161 79 329 153
168 75 319 142 335 149 219 100 837 371 860 377 65 18 145 2 265 -52z"/>
<path d="M1470 3313 c-132 -17 -263 -72 -365 -153 -61 -49 -66 -55 -121 -125
-62 -79 -124 -211 -139 -295 -3 -14 -9 -47 -14 -73 -9 -48 -7 -246 3 -296 3
-14 8 -46 11 -71 3 -25 18 -97 32 -160 116 -529 427 -1154 619 -1245 48 -23
111 -21 143 3 57 42 72 79 166 407 86 297 141 429 211 502 35 37 46 43 82 43
59 0 110 -51 162 -163 48 -102 61 -143 145 -437 35 -124 72 -246 83 -271 51
-119 165 -134 273 -36 171 154 427 693 538 1132 21 84 23 95 40 185 20 107 22
126 26 250 7 191 -28 325 -122 473 -104 163 -245 266 -428 312 -70 17 -191 23
-255 12 -47 -8 -149 -44 -166 -58 -8 -6 -14 -9 -14 -6 0 7 -171 -82 -233 -120
-46 -29 -53 -27 -167 37 -220 122 -378 170 -510 153z m236 -188 c85 -32 129
-57 251 -146 166 -120 278 -161 448 -163 132 -1 293 24 345 55 19 11 18 11
-60 14 -210 9 -264 16 -370 51 -103 34 -110 39 -85 58 45 34 265 137 324 152
194 49 418 -45 540 -226 39 -58 84 -155 95 -205 3 -17 9 -41 12 -55 6 -30 6
-216 0 -246 -2 -12 -7 -43 -11 -71 -3 -27 -19 -106 -35 -174 -17 -68 -32 -133
-35 -145 -11 -46 -99 -295 -141 -399 -55 -134 -167 -352 -229 -445 -55 -83
-114 -145 -125 -134 -5 5 -43 131 -85 279 -100 353 -148 469 -236 576 -104
125 -269 140 -387 34 -95 -86 -177 -266 -263 -579 -41 -149 -95 -310 -106
-313 -16 -6 -46 29 -118 137 -110 167 -194 339 -280 575 -26 72 -51 139 -55
150 -15 37 -69 249 -92 360 -17 83 -22 146 -22 255 -1 150 1 163 29 246 56
166 186 306 335 360 115 41 245 41 356 -1z"/>
</g>
</svg>
